<svg aria-hidden="true" style="position: absolute; width: 0; height: 0; overflow: hidden;" version="1.1" xmlns="http://www.w3.org/2000/svg" xmlns:xlink="http://www.w3.org/1999/xlink">
<defs>
<symbol id="icon-Arrow-right-1" viewBox="0 0 32 32">
<path d="M2 17.5h23.72l-7.26 8.72c-0.168 0.202-0.295 0.436-0.373 0.687s-0.106 0.515-0.081 0.777c0.049 0.529 0.306 1.017 0.714 1.356s0.935 0.503 1.464 0.454c0.529-0.049 1.017-0.306 1.356-0.714l10-12c0.067-0.095 0.127-0.196 0.18-0.3 0-0.1 0.1-0.16 0.14-0.26 0.091-0.229 0.138-0.473 0.14-0.72-0.002-0.247-0.049-0.491-0.14-0.72 0-0.1-0.1-0.16-0.14-0.26-0.053-0.104-0.113-0.204-0.18-0.3l-10-12c-0.188-0.226-0.424-0.407-0.69-0.532s-0.556-0.189-0.85-0.188c-0.467-0.001-0.92 0.162-1.28 0.46-0.203 0.168-0.37 0.374-0.493 0.607s-0.198 0.487-0.223 0.749c-0.024 0.262 0.004 0.526 0.082 0.777s0.205 0.485 0.373 0.687l7.26 8.72h-23.72c-0.53 0-1.039 0.211-1.414 0.586s-0.586 0.884-0.586 1.414c0 0.53 0.211 1.039 0.586 1.414s0.884 0.586 1.414 0.586z"></path>
</symbol>
<symbol id="icon-Arrow-right-2" viewBox="0 0 32 32">
<path d="M0 16c0-0.296 0.118-0.58 0.327-0.789s0.493-0.327 0.789-0.327h26.329l-7.026-7.024c-0.21-0.21-0.327-0.494-0.327-0.79s0.118-0.581 0.327-0.79c0.21-0.21 0.494-0.327 0.79-0.327s0.581 0.118 0.79 0.327l8.93 8.93c0.104 0.104 0.186 0.227 0.243 0.363s0.085 0.281 0.085 0.428-0.029 0.292-0.085 0.428c-0.056 0.136-0.139 0.259-0.243 0.363l-8.93 8.93c-0.21 0.21-0.494 0.327-0.79 0.327s-0.581-0.118-0.79-0.327c-0.21-0.21-0.327-0.494-0.327-0.79s0.118-0.581 0.327-0.79l7.026-7.024h-26.329c-0.296 0-0.58-0.118-0.789-0.327s-0.327-0.493-0.327-0.789z"></path>
</symbol>
<symbol id="icon-customer-service-outlined" viewBox="0 0 32 32">
<path d="M26.584 10.667h1.416c0.707 0 1.386 0.281 1.886 0.781s0.781 1.178 0.781 1.886v5.333c0 0.707-0.281 1.386-0.781 1.886s-1.178 0.781-1.886 0.781h-1.416c-0.325 2.578-1.58 4.948-3.528 6.667s-4.457 2.667-7.056 2.667v-2.667c2.122 0 4.157-0.843 5.657-2.343s2.343-3.535 2.343-5.657v-8c0-2.122-0.843-4.157-2.343-5.657s-3.535-2.343-5.657-2.343-4.157 0.843-5.657 2.343c-1.5 1.5-2.343 3.535-2.343 5.657v9.333h-4c-0.707 0-1.386-0.281-1.886-0.781s-0.781-1.178-0.781-1.886v-5.333c0-0.707 0.281-1.386 0.781-1.886s1.178-0.781 1.886-0.781h1.416c0.325-2.577 1.58-4.948 3.529-6.666s4.457-2.666 7.055-2.666c2.598 0 5.107 0.948 7.055 2.666s3.203 4.088 3.529 6.666zM4 13.333v5.333h1.333v-5.333h-1.333zM26.667 13.333v5.333h1.333v-5.333h-1.333zM10.347 21.047l1.413-2.261c1.271 0.796 2.74 1.217 4.24 1.215 1.5 0.002 2.969-0.419 4.24-1.215l1.413 2.261c-1.694 1.062-3.654 1.623-5.653 1.62-1.999 0.003-3.959-0.558-5.653-1.62z"></path>
</symbol>
<symbol id="icon-delivery-truck-outlined" viewBox="0 0 32 32">
<path d="M29.92 16.61l-3-7c-0.077-0.181-0.205-0.335-0.368-0.443s-0.355-0.166-0.552-0.167h-3v-2c0-0.265-0.105-0.52-0.293-0.707s-0.442-0.293-0.707-0.293h-19c-0.265 0-0.52 0.105-0.707 0.293s-0.293 0.442-0.293 0.707v17c0 0.265 0.105 0.52 0.293 0.707s0.442 0.293 0.707 0.293h2.14c0.23 0.847 0.733 1.595 1.431 2.129s1.551 0.822 2.429 0.822 1.732-0.289 2.429-0.822c0.698-0.533 1.2-1.281 1.431-2.129h6.28c0.23 0.847 0.733 1.595 1.431 2.129s1.551 0.822 2.429 0.822 1.732-0.289 2.429-0.822c0.698-0.533 1.2-1.281 1.431-2.129h2.14c0.265 0 0.52-0.105 0.707-0.293s0.293-0.442 0.293-0.707v-7c-0-0.134-0.027-0.267-0.080-0.39zM23 11h2.34l2.14 5h-4.48v-5zM9 26c-0.396 0-0.782-0.117-1.111-0.337s-0.585-0.532-0.737-0.898c-0.151-0.365-0.191-0.768-0.114-1.156s0.268-0.744 0.547-1.024c0.28-0.28 0.636-0.47 1.024-0.547s0.79-0.038 1.156 0.114c0.365 0.151 0.678 0.408 0.898 0.737s0.337 0.716 0.337 1.111c0 0.53-0.211 1.039-0.586 1.414s-0.884 0.586-1.414 0.586zM19.14 23h-6.28c-0.23-0.847-0.733-1.595-1.431-2.129s-1.551-0.822-2.429-0.822-1.732 0.289-2.429 0.822c-0.698 0.533-1.2 1.281-1.431 2.129h-1.14v-15h17v12.56c-0.455 0.264-0.854 0.616-1.173 1.035s-0.553 0.896-0.687 1.405zM23 26c-0.396 0-0.782-0.117-1.111-0.337s-0.585-0.532-0.737-0.898c-0.151-0.365-0.191-0.768-0.114-1.156s0.268-0.744 0.547-1.024c0.28-0.28 0.636-0.47 1.024-0.547s0.79-0.038 1.156 0.114c0.365 0.151 0.678 0.408 0.898 0.737s0.337 0.716 0.337 1.111c0 0.53-0.211 1.039-0.586 1.414s-0.884 0.586-1.414 0.586zM28 23h-1.14c-0.221-0.857-0.72-1.616-1.418-2.158s-1.557-0.839-2.442-0.842v-2h5v5z"></path>
</symbol>
<symbol id="icon-Discord" viewBox="0 0 32 32">
<path d="M26.964 0c1.875 0 3.385 1.516 3.474 3.302v28.698l-3.568-3.031-1.958-1.781-2.141-1.865 0.891 2.938h-18.714c-1.87 0-3.385-1.417-3.385-3.302v-21.651c0-1.786 1.516-3.302 3.391-3.302l22.010-0.006zM18.807 7.578h-0.042l-0.271 0.266c2.766 0.802 4.104 2.052 4.104 2.052-1.781-0.891-3.391-1.339-4.995-1.521-1.156-0.177-2.318-0.083-3.297 0h-0.271c-0.625 0-1.958 0.271-3.745 0.984-0.62 0.271-0.979 0.448-0.979 0.448s1.333-1.339 4.281-2.052l-0.182-0.177c0 0-2.229-0.089-4.635 1.693 0 0-2.406 4.193-2.406 9.359 0 0 1.333 2.318 4.99 2.406 0 0 0.536-0.708 1.073-1.333-2.052-0.625-2.854-1.875-2.854-1.875s0.182 0.089 0.448 0.266h0.078c0.042 0 0.063 0.021 0.083 0.042v0.010c0.021 0.021 0.042 0.036 0.078 0.036 0.443 0.182 0.88 0.359 1.24 0.536 0.625 0.266 1.422 0.536 2.401 0.714 1.24 0.182 2.661 0.266 4.281 0 0.797-0.182 1.599-0.354 2.401-0.714 0.516-0.266 1.156-0.531 1.859-0.984 0 0-0.797 1.25-2.938 1.875 0.438 0.62 1.057 1.333 1.057 1.333 3.661-0.083 5.083-2.401 5.161-2.302 0-5.161-2.422-9.359-2.422-9.359-2.177-1.62-4.219-1.682-4.578-1.682l0.073-0.026 0.007 0.005zM19.031 13.464c0.938 0 1.693 0.797 1.693 1.776 0 0.99-0.76 1.786-1.693 1.786-0.938 0-1.693-0.797-1.693-1.776 0-0.99 0.76-1.786 1.693-1.786zM12.974 13.464c0.932 0 1.688 0.797 1.688 1.776 0 0.99-0.76 1.786-1.693 1.786-0.938 0-1.698-0.797-1.698-1.776 0-0.99 0.76-1.786 1.698-1.786h0.005z"></path>
</symbol>
<symbol id="icon-discord-alt" viewBox="0 0 32 32">
<path d="M27.089 5.989c-2.040-0.92-4.227-1.6-6.513-1.987-0.020-0.004-0.041-0.001-0.060 0.007s-0.035 0.023-0.045 0.041c-0.28 0.492-0.592 1.133-0.811 1.64-2.425-0.362-4.891-0.362-7.316 0-0.243-0.562-0.518-1.109-0.823-1.64-0.010-0.018-0.026-0.033-0.045-0.042s-0.040-0.012-0.061-0.009c-2.285 0.387-4.472 1.067-6.513 1.988-0.018 0.007-0.032 0.020-0.043 0.036-4.149 6.1-5.287 12.049-4.728 17.924 0.002 0.014 0.006 0.028 0.013 0.041s0.017 0.024 0.028 0.032c2.422 1.763 5.123 3.106 7.991 3.973 0.020 0.006 0.041 0.006 0.061 0s0.038-0.018 0.051-0.035c0.616-0.827 1.165-1.7 1.635-2.617 0.028-0.053 0.001-0.117-0.055-0.139-0.861-0.324-1.696-0.716-2.496-1.171-0.014-0.008-0.027-0.020-0.035-0.034s-0.014-0.030-0.015-0.047 0.002-0.033 0.009-0.048c0.007-0.015 0.017-0.028 0.031-0.038 0.168-0.124 0.336-0.253 0.496-0.383 0.014-0.012 0.032-0.019 0.050-0.021s0.037 0 0.054 0.008c5.236 2.352 10.907 2.352 16.081 0 0.017-0.008 0.036-0.011 0.054-0.009s0.036 0.009 0.051 0.021c0.16 0.131 0.327 0.26 0.496 0.384 0.013 0.010 0.024 0.023 0.031 0.038s0.010 0.031 0.010 0.048c-0.001 0.017-0.006 0.033-0.014 0.047s-0.020 0.026-0.035 0.035c-0.797 0.459-1.627 0.847-2.497 1.169-0.013 0.005-0.026 0.012-0.036 0.023s-0.018 0.022-0.023 0.035c-0.005 0.013-0.008 0.027-0.007 0.042s0.005 0.028 0.011 0.041c0.48 0.916 1.029 1.788 1.633 2.616 0.012 0.017 0.030 0.030 0.050 0.036s0.042 0.007 0.062 0.001c2.872-0.864 5.578-2.208 8.003-3.975 0.012-0.008 0.022-0.019 0.029-0.031s0.012-0.026 0.014-0.041c0.667-6.792-1.117-12.693-4.732-17.923-0.009-0.017-0.023-0.030-0.041-0.037zM10.693 20.371c-1.576 0-2.876-1.425-2.876-3.173 0-1.749 1.275-3.173 2.876-3.173 1.613 0 2.901 1.436 2.876 3.173 0 1.749-1.275 3.173-2.876 3.173zM21.327 20.371c-1.577 0-2.876-1.425-2.876-3.173 0-1.749 1.273-3.173 2.876-3.173 1.613 0 2.901 1.436 2.876 3.173 0 1.749-1.261 3.173-2.876 3.173z"></path>
</symbol>
<symbol id="icon-discord-outlined" viewBox="0 0 32 32">
<path fill="#82e1ff" style="fill: var(--color1, #82e1ff); stroke: var(--color1, #82e1ff)" stroke="#82e1ff" stroke-linejoin="miter" stroke-linecap="butt" stroke-miterlimit="4" stroke-width="0.5333" d="M12.656 4.906l-0.781 0.094c0 0-3.504 0.383-6.063 2.438h-0.030l-0.032 0.030c-0.574 0.528-0.824 1.177-1.219 2.126-0.466 1.142-0.862 2.311-1.187 3.5-0.742 2.683-1.344 5.933-1.344 8.906v0.25l0.125 0.25c0.926 1.625 2.57 2.66 4.094 3.375 1.523 0.715 2.84 1.094 3.75 1.125l0.594 0.031 0.312-0.531 1.094-1.938c1.16 0.262 2.496 0.438 4.031 0.438s2.871-0.176 4.031-0.438l1.094 1.938 0.313 0.531 0.593-0.031c0.91-0.031 2.227-0.41 3.75-1.125s3.168-1.75 4.094-3.375l0.125-0.25v-0.25c0-2.973-0.602-6.223-1.344-8.906-0.325-1.189-0.721-2.358-1.187-3.5-0.395-0.95-0.645-1.598-1.219-2.125l-0.031-0.032h-0.032c-2.557-2.054-6.062-2.437-6.062-2.437l-0.781-0.094-0.282 0.719c0 0-0.289 0.73-0.468 1.563-0.86-0.119-1.726-0.181-2.594-0.188-0.535 0-1.46 0.035-2.594 0.188-0.18-0.833-0.469-1.563-0.469-1.563l-0.281-0.719zM11.281 7.188c0.043 0.14 0.086 0.261 0.125 0.375-1.293 0.32-2.672 0.808-3.937 1.593l1.062 1.688c2.594-1.61 6.32-1.844 7.469-1.844s4.875 0.234 7.469 1.844l1.062-1.688c-1.265-0.785-2.644-1.273-3.937-1.594 0.039-0.113 0.082-0.234 0.125-0.375 0.933 0.188 2.715 0.618 4.187 1.782-0.008 0.004 0.375 0.582 0.719 1.406 0.352 0.848 0.742 1.977 1.094 3.25 0.676 2.441 1.207 5.414 1.25 8.031-0.63 0.961-1.797 1.828-3.032 2.407-0.775 0.366-1.594 0.628-2.437 0.78l-0.5-0.843c0.297-0.11 0.59-0.23 0.844-0.344 1.539-0.676 2.375-1.406 2.375-1.406l-1.313-1.5c0 0-0.562 0.516-1.875 1.094-1.311 0.578-3.316 1.156-6.031 1.156s-4.719-0.578-6.031-1.156c-1.313-0.578-1.875-1.094-1.875-1.094l-1.313 1.5c0 0 0.836 0.73 2.375 1.406 0.254 0.114 0.547 0.235 0.844 0.344l-0.5 0.844c-0.844-0.152-1.663-0.415-2.438-0.782-1.234-0.578-2.402-1.445-3.030-2.406 0.042-2.617 0.573-5.59 1.25-8.031 0.299-1.104 0.664-2.189 1.093-3.25 0.344-0.824 0.727-1.402 0.719-1.406 1.472-1.164 3.254-1.594 4.187-1.781zM12.5 14c-0.773 0-1.457 0.441-1.875 1s-0.625 1.246-0.625 2 0.207 1.441 0.625 2c0.418 0.559 1.102 1 1.875 1s1.457-0.441 1.875-1c0.418-0.559 0.625-1.246 0.625-2s-0.207-1.441-0.625-2c-0.418-0.559-1.102-1-1.875-1zM19.5 14c-0.773 0-1.457 0.441-1.875 1s-0.625 1.246-0.625 2 0.207 1.441 0.625 2c0.418 0.559 1.102 1 1.875 1s1.457-0.441 1.875-1c0.418-0.559 0.625-1.246 0.625-2s-0.207-1.441-0.625-2c-0.418-0.559-1.102-1-1.875-1zM12.5 16c0.055 0 0.125 0.020 0.25 0.188s0.25 0.46 0.25 0.812-0.125 0.645-0.25 0.813c-0.125 0.167-0.195 0.187-0.25 0.187s-0.125-0.020-0.25-0.188c-0.165-0.238-0.253-0.522-0.25-0.812 0-0.352 0.125-0.645 0.25-0.813s0.195-0.187 0.25-0.187zM19.5 16c0.055 0 0.125 0.020 0.25 0.188s0.25 0.46 0.25 0.812-0.125 0.645-0.25 0.813c-0.125 0.167-0.195 0.187-0.25 0.187s-0.125-0.020-0.25-0.188c-0.165-0.238-0.253-0.522-0.25-0.812 0-0.352 0.125-0.645 0.25-0.813s0.195-0.187 0.25-0.187z"></path>
</symbol>
<symbol id="icon-envelope" viewBox="0 0 32 32">
<path d="M28.191 3.809h-24.381c-1.676 0-3.032 1.371-3.032 3.048l-0.015 18.286c0 1.676 1.371 3.048 3.048 3.048h24.381c1.676 0 3.048-1.371 3.048-3.048v-18.286c0-1.676-1.371-3.048-3.048-3.048zM27.581 10.286l-10.773 6.735c-0.488 0.305-1.128 0.305-1.615 0l-10.773-6.735c-0.153-0.086-0.287-0.202-0.393-0.341s-0.184-0.298-0.228-0.468c-0.043-0.17-0.052-0.347-0.025-0.52s0.089-0.339 0.182-0.488c0.093-0.149 0.215-0.277 0.359-0.377s0.306-0.17 0.478-0.205c0.172-0.035 0.349-0.036 0.52-0.001s0.335 0.104 0.479 0.204l10.21 6.385 10.21-6.385c0.144-0.1 0.307-0.169 0.479-0.204s0.349-0.035 0.52 0.001c0.172 0.035 0.334 0.105 0.478 0.205s0.266 0.228 0.359 0.377c0.093 0.149 0.155 0.314 0.182 0.488s0.018 0.35-0.025 0.52-0.121 0.329-0.228 0.468c-0.107 0.139-0.24 0.255-0.393 0.341z"></path>
</symbol>
<symbol id="icon-envelope-alt" viewBox="0 0 32 32">
<path fill="#c1269f" style="fill: var(--color2, #c1269f)" d="M30.769 3.333h-29.538c-0.326 0-0.639 0.13-0.87 0.36s-0.36 0.544-0.36 0.87v20.923c0 0.653 0.259 1.279 0.721 1.741s1.088 0.721 1.741 0.721h27.077c0.653 0 1.279-0.259 1.741-0.721s0.721-1.088 0.721-1.741v-20.923c0-0.326-0.13-0.639-0.361-0.87s-0.544-0.36-0.87-0.36zM17.862 14.718l-1.862 1.708-11.6-10.631h23.2l-9.738 8.923zM11.492 15.641l-9.031 8.277v-16.554l9.031 8.277zM13.308 17.318l1.861 1.692c0.227 0.208 0.523 0.323 0.831 0.323s0.604-0.115 0.831-0.323l1.861-1.692 8.908 8.169h-23.2l8.908-8.169zM20.508 15.641l9.031-8.277v16.554l-9.031-8.277z"></path>
</symbol>
<symbol id="icon-facebook" viewBox="0 0 32 32">
<path d="M28.19 0.277h-24.381c-0.882 0-1.727 0.35-2.351 0.974s-0.974 1.469-0.974 2.351v24.381c0 0.882 0.35 1.727 0.974 2.351s1.469 0.974 2.351 0.974h9.506v-10.55h-4.364v-4.966h4.364v-3.785c0-4.305 2.563-6.683 6.488-6.683 1.88 0 3.846 0.335 3.846 0.335v4.225h-2.166c-2.134 0-2.8 1.324-2.8 2.683v3.224h4.764l-0.762 4.966h-4.002v10.55h9.506c0.882 0 1.727-0.35 2.351-0.974s0.974-1.469 0.974-2.351v-24.381c0-0.882-0.35-1.727-0.974-2.351s-1.469-0.974-2.351-0.974z"></path>
</symbol>
<symbol id="icon-facebook-alt" viewBox="0 0 32 32">
<path d="M17.863 27.996v-10.928h3.687l0.548-4.279h-4.235v-2.725c0-1.235 0.344-2.080 2.116-2.080h2.245v-3.815c-1.093-0.117-2.191-0.174-3.289-0.169-3.259 0-5.496 1.989-5.496 5.641v3.14h-3.663v4.279h3.671v10.936h4.416z"></path>
</symbol>
<symbol id="icon-facebook-outlined" viewBox="0 0 32 32">
<path fill="none" stroke="#82e1ff" style="stroke: var(--color1, #82e1ff)" stroke-linejoin="round" stroke-linecap="round" stroke-miterlimit="4" stroke-width="2.6182" d="M24 1.455h-4.364c-1.929 0-3.779 0.766-5.143 2.13s-2.13 3.214-2.13 5.143v4.364h-4.364v5.818h4.364v11.636h5.818v-11.636h4.364l1.455-5.818h-5.818v-4.364c0-0.386 0.153-0.756 0.426-1.029s0.643-0.426 1.029-0.426h4.364v-5.818z"></path>
</symbol>
<symbol id="icon-Insta" viewBox="0 0 32 32">
<path d="M16 12.098c-0.731 0-1.445 0.217-2.052 0.623s-1.081 0.983-1.36 1.658c-0.279 0.675-0.352 1.418-0.21 2.135s0.495 1.375 1.011 1.891c0.517 0.517 1.175 0.868 1.892 1.011s1.459 0.069 2.134-0.21 1.252-0.753 1.658-1.361c0.406-0.608 0.623-1.322 0.623-2.052-0.001-0.98-0.39-1.919-1.083-2.612s-1.633-1.082-2.613-1.082zM24.638 9.258c-0.188-0.477-0.472-0.91-0.834-1.272s-0.795-0.646-1.272-0.834c-1.455-0.574-4.918-0.445-6.532-0.445s-5.074-0.134-6.532 0.445c-0.477 0.188-0.91 0.472-1.272 0.834s-0.646 0.795-0.834 1.272c-0.574 1.455-0.445 4.921-0.445 6.534s-0.128 5.075 0.448 6.534c0.188 0.477 0.472 0.91 0.834 1.272s0.795 0.646 1.272 0.834c1.455 0.574 4.918 0.445 6.532 0.445s5.073 0.134 6.532-0.445c0.477-0.188 0.91-0.472 1.272-0.834s0.646-0.795 0.834-1.272c0.578-1.455 0.445-4.921 0.445-6.534s0.133-5.074-0.445-6.534l-0.003-0.001zM16 21.472c-1.123 0-2.221-0.333-3.155-0.957s-1.662-1.511-2.092-2.549c-0.43-1.038-0.542-2.18-0.323-3.282s0.76-2.114 1.554-2.908c0.794-0.794 1.806-1.335 2.908-1.554s2.244-0.107 3.282 0.323c1.038 0.43 1.925 1.158 2.549 2.092s0.957 2.032 0.957 3.155c0.001 0.746-0.145 1.485-0.43 2.175s-0.703 1.316-1.231 1.844c-0.528 0.527-1.154 0.946-1.844 1.231s-1.428 0.431-2.175 0.43zM21.914 11.2c-0.262 0-0.519-0.077-0.737-0.223s-0.388-0.353-0.489-0.595-0.127-0.509-0.076-0.766c0.051-0.257 0.177-0.493 0.363-0.679s0.422-0.312 0.679-0.363c0.257-0.051 0.524-0.025 0.766 0.075s0.449 0.27 0.595 0.488c0.146 0.218 0.224 0.474 0.224 0.737 0.001 0.174-0.033 0.347-0.099 0.508s-0.163 0.307-0.286 0.431-0.269 0.221-0.43 0.288c-0.161 0.067-0.333 0.101-0.507 0.101l-0.003-0.003zM28.19 0.277h-24.381c-0.882 0-1.727 0.35-2.351 0.974s-0.974 1.469-0.974 2.351v24.381c0 0.882 0.35 1.727 0.974 2.351s1.469 0.974 2.351 0.974h24.381c0.882 0 1.727-0.35 2.351-0.974s0.974-1.469 0.974-2.351v-24.381c0-0.882-0.35-1.727-0.974-2.351s-1.469-0.974-2.351-0.974zM27.005 20.364c-0.089 1.775-0.495 3.348-1.791 4.641s-2.867 1.706-4.641 1.791c-1.829 0.103-7.314 0.103-9.143 0-1.775-0.089-3.343-0.495-4.641-1.791s-1.706-2.869-1.79-4.641c-0.103-1.83-0.103-7.315 0-9.143 0.089-1.775 0.49-3.348 1.79-4.641s2.872-1.701 4.641-1.786c1.829-0.103 7.314-0.103 9.143 0 1.775 0.089 3.348 0.495 4.641 1.79s1.706 2.869 1.791 4.644c0.103 1.823 0.103 7.303 0 9.135z"></path>
</symbol>
<symbol id="icon-insta-alt" viewBox="0 0 32 32">
<path d="M27.929 11.073c-0.013-1.010-0.203-2.010-0.559-2.955-0.309-0.797-0.781-1.521-1.385-2.126s-1.328-1.076-2.125-1.385c-0.933-0.35-1.919-0.54-2.915-0.56-1.283-0.057-1.689-0.073-4.945-0.073s-3.673 0-4.947 0.073c-0.996 0.021-1.981 0.21-2.913 0.56-0.797 0.309-1.521 0.78-2.126 1.385s-1.076 1.329-1.385 2.126c-0.351 0.932-0.54 1.918-0.559 2.913-0.057 1.284-0.075 1.691-0.075 4.947s0 3.672 0.075 4.947c0.020 0.997 0.208 1.981 0.559 2.916 0.309 0.797 0.781 1.521 1.386 2.125s1.329 1.076 2.126 1.384c0.93 0.364 1.915 0.567 2.913 0.6 1.284 0.057 1.691 0.075 4.947 0.075s3.673 0 4.947-0.075c0.996-0.020 1.982-0.209 2.915-0.559 0.797-0.309 1.521-0.781 2.125-1.386s1.076-1.328 1.386-2.125c0.351-0.933 0.539-1.917 0.559-2.916 0.057-1.283 0.075-1.689 0.075-4.947-0.003-3.256-0.003-3.669-0.077-4.945zM15.992 22.136c-3.405 0-6.164-2.759-6.164-6.164s2.759-6.164 6.164-6.164c1.635 0 3.203 0.649 4.359 1.805s1.805 2.724 1.805 4.359-0.649 3.203-1.805 4.359c-1.156 1.156-2.724 1.805-4.359 1.805zM22.401 11.017c-0.189 0-0.376-0.037-0.55-0.109s-0.333-0.178-0.466-0.312-0.239-0.292-0.312-0.466c-0.072-0.174-0.109-0.361-0.109-0.55s0.037-0.375 0.109-0.55 0.178-0.333 0.311-0.466c0.133-0.133 0.292-0.239 0.466-0.311s0.361-0.109 0.55-0.109c0.189 0 0.375 0.037 0.55 0.109s0.333 0.178 0.466 0.311c0.133 0.133 0.239 0.292 0.311 0.466s0.109 0.361 0.109 0.55c0 0.795-0.643 1.437-1.436 1.437z"></path>
<path d="M15.992 19.976c2.211 0 4.004-1.793 4.004-4.004s-1.793-4.004-4.004-4.004c-2.211 0-4.004 1.793-4.004 4.004s1.793 4.004 4.004 4.004z"></path>
</symbol>
<symbol id="icon-instagram-outlined" viewBox="0 0 32 32">
<path fill="#82e1ff" style="fill: var(--color1, #82e1ff)" d="M9.953 1.421c1.564-0.072 2.063-0.088 6.047-0.088s4.483 0.017 6.045 0.088c1.563 0.071 2.629 0.32 3.563 0.681 0.977 0.369 1.864 0.947 2.597 1.693 0.747 0.732 1.323 1.617 1.691 2.596 0.363 0.933 0.611 2 0.683 3.56 0.072 1.567 0.088 2.065 0.088 6.048 0 3.984-0.017 4.483-0.088 6.047-0.071 1.56-0.32 2.627-0.683 3.56-0.368 0.979-0.945 1.866-1.691 2.599-0.733 0.747-1.62 1.323-2.597 1.691-0.933 0.363-2 0.611-3.56 0.683-1.565 0.072-2.064 0.088-6.048 0.088s-4.483-0.017-6.047-0.088c-1.56-0.071-2.627-0.32-3.56-0.683-0.979-0.368-1.866-0.945-2.599-1.691-0.746-0.732-1.324-1.619-1.692-2.597-0.361-0.933-0.609-2-0.681-3.56-0.072-1.567-0.088-2.065-0.088-6.048 0-3.984 0.017-4.483 0.088-6.045s0.32-2.629 0.681-3.563c0.369-0.979 0.947-1.865 1.693-2.597 0.732-0.746 1.618-1.323 2.596-1.692 0.933-0.361 2.001-0.609 3.561-0.681zM21.927 4.061c-1.547-0.071-2.011-0.085-5.927-0.085s-4.38 0.015-5.927 0.085c-1.431 0.065-2.207 0.304-2.724 0.505-0.684 0.267-1.173 0.583-1.687 1.096-0.487 0.473-0.861 1.050-1.096 1.687-0.201 0.517-0.44 1.293-0.505 2.724-0.071 1.547-0.085 2.011-0.085 5.927s0.015 4.38 0.085 5.927c0.065 1.431 0.304 2.207 0.505 2.724 0.235 0.636 0.609 1.213 1.096 1.687 0.473 0.487 1.051 0.861 1.687 1.096 0.517 0.201 1.293 0.44 2.724 0.505 1.547 0.071 2.009 0.085 5.927 0.085s4.38-0.015 5.927-0.085c1.431-0.065 2.207-0.304 2.724-0.505 0.684-0.267 1.173-0.583 1.687-1.096 0.487-0.473 0.861-1.051 1.096-1.687 0.201-0.517 0.44-1.293 0.505-2.724 0.071-1.547 0.085-2.011 0.085-5.927s-0.015-4.38-0.085-5.927c-0.065-1.431-0.304-2.207-0.505-2.724-0.267-0.684-0.583-1.173-1.096-1.687-0.473-0.487-1.050-0.861-1.687-1.096-0.517-0.201-1.293-0.44-2.724-0.505zM14.127 20.521c1.046 0.435 2.211 0.494 3.296 0.166s2.022-1.022 2.652-1.965c0.63-0.942 0.913-2.074 0.801-3.201s-0.612-2.181-1.415-2.981c-0.512-0.511-1.13-0.903-1.812-1.146s-1.408-0.333-2.128-0.262-1.415 0.301-2.036 0.673c-0.62 0.372-1.151 0.877-1.553 1.478s-0.665 1.285-0.772 2c-0.106 0.715-0.053 1.446 0.157 2.138s0.571 1.329 1.056 1.866c0.486 0.536 1.084 0.958 1.752 1.235zM10.669 10.669c0.7-0.7 1.531-1.255 2.446-1.634s1.895-0.574 2.885-0.574c0.99 0 1.97 0.195 2.885 0.574s1.746 0.934 2.446 1.634c0.7 0.7 1.255 1.531 1.634 2.446s0.574 1.895 0.574 2.885-0.195 1.97-0.574 2.885c-0.379 0.915-0.934 1.746-1.634 2.446-1.414 1.414-3.331 2.208-5.331 2.208s-3.917-0.794-5.331-2.208c-1.414-1.414-2.208-3.331-2.208-5.331s0.794-3.917 2.208-5.331zM25.211 9.584c0.173-0.164 0.312-0.36 0.408-0.579s0.147-0.454 0.151-0.692c0.003-0.238-0.041-0.475-0.131-0.696s-0.223-0.422-0.391-0.59c-0.169-0.169-0.369-0.302-0.59-0.391s-0.458-0.134-0.696-0.131c-0.239 0.003-0.474 0.055-0.692 0.151s-0.415 0.235-0.579 0.408c-0.318 0.337-0.493 0.785-0.486 1.249s0.194 0.907 0.522 1.235c0.328 0.328 0.771 0.515 1.235 0.522s0.912-0.167 1.249-0.486z"></path>
</symbol>
<symbol id="icon-phone" viewBox="0 0 32 32">
<path d="M8.014 1.569c0.229-0.337 0.503-0.599 0.805-0.768s0.625-0.241 0.947-0.211c0.322 0.030 0.637 0.16 0.922 0.383s0.536 0.533 0.734 0.91l2.344 4.452c0.43 0.817 0.581 1.88 0.411 2.884l-0.714 4.228c-0.037 0.219-0.035 0.448 0.006 0.666s0.119 0.416 0.227 0.575l3.209 4.743c0.108 0.16 0.243 0.275 0.39 0.336s0.303 0.063 0.451 0.008l2.859-1.056c0.335-0.124 0.685-0.134 1.023-0.028s0.655 0.323 0.928 0.636l3.012 3.463c1.083 1.245 1.182 3.61 0.213 5.040l-1.351 1.996c-0.967 1.428-2.411 2.056-3.758 1.355-3.447-1.792-6.576-4.709-9.156-8.533-2.587-3.813-4.56-8.437-5.773-13.53-0.473-1.988-0.048-4.125 0.918-5.554l1.351-1.996z"></path>
</symbol>
<symbol id="icon-safety-outlined" viewBox="0 0 32 32">
<path d="M16 2l-12 4v12c0 6.628 5.372 12 12 12s12-5.372 12-12v-12l-12-4zM25.75 18c0 5.384-4.366 9.75-9.75 9.75s-9.75-4.366-9.75-9.75v-10.313l9.75-3.438 9.75 3.438v10.313z"></path>
<path d="M11.825 14.847c-0.104-0.105-0.228-0.188-0.365-0.245s-0.283-0.086-0.431-0.086c-0.148 0-0.294 0.029-0.431 0.086s-0.26 0.14-0.365 0.245c-0.105 0.104-0.188 0.228-0.245 0.365s-0.086 0.283-0.086 0.431c0 0.148 0.029 0.294 0.086 0.431s0.14 0.26 0.245 0.365l4.109 4.109c0.099 0.099 0.216 0.177 0.345 0.231s0.267 0.081 0.407 0.081c0.14 0 0.278-0.027 0.407-0.081s0.246-0.132 0.345-0.231l6.984-6.984c0.099-0.099 0.177-0.216 0.231-0.345s0.081-0.267 0.081-0.407-0.028-0.278-0.081-0.407c-0.053-0.129-0.132-0.246-0.231-0.345l-0.087-0.088c-0.099-0.099-0.216-0.177-0.345-0.231s-0.267-0.081-0.407-0.081c-0.14 0-0.278 0.027-0.407 0.081s-0.246 0.132-0.345 0.231l-6.147 6.144-3.269-3.269z"></path>
</symbol>
<symbol id="icon-service-desk-outlined" viewBox="0 0 32 32">
<path d="M28 24.005v-2c-0.004-3.007-1.137-5.904-3.174-8.116s-4.83-3.581-7.826-3.834v-2.050h3v-2h-8v2h3v2.050c-2.997 0.253-5.79 1.621-7.826 3.834s-3.169 5.109-3.174 8.116v2h-2v2h28v-2h-2zM16 12.005c2.304 0.003 4.537 0.801 6.321 2.258s3.013 3.485 3.477 5.742h-19.596c0.464-2.257 1.692-4.285 3.477-5.742s4.017-2.255 6.321-2.258zM6 22.005h20v2h-20v-2z"></path>
</symbol>
<symbol id="icon-Steam" viewBox="0 0 32 32">
<path d="M13.313 22.753c0.533-1.281-0.069-2.75-1.358-3.283l-2.043-0.845c0.79-0.298 1.683-0.312 2.521 0.035 0.845 0.353 1.496 1.011 1.849 1.849 0.346 0.845 0.346 1.773-0.007 2.611-0.727 1.738-2.729 2.563-4.474 1.835-0.803-0.332-1.413-0.942-1.759-1.676l1.974 0.817c1.288 0.54 2.764-0.062 3.297-1.344zM28.19 0.277h-24.381c-1.835 0-3.325 1.489-3.325 3.325v11.131l8.076 3.332c0.831-0.568 1.815-0.838 2.819-0.783l3.837-5.555v-0.076c0-3.338 2.722-6.061 6.068-6.061s6.067 2.722 6.067 6.061c0 3.408-2.833 6.144-6.206 6.061l-5.472 3.9c0.111 2.667-2.016 4.765-4.551 4.765-2.203 0-4.052-1.572-4.468-3.65l-6.171-2.556v7.813c0 1.835 1.489 3.325 3.325 3.325h24.381c1.836 0 3.325-1.489 3.325-3.325v-24.381c0-1.835-1.489-3.325-3.325-3.325zM21.285 15.688c-2.23 0-4.045-1.808-4.045-4.038s1.815-4.038 4.045-4.038c2.23 0 4.045 1.815 4.045 4.038s-1.815 4.038-4.045 4.038zM21.292 14.677c1.676 0 3.041-1.358 3.041-3.034s-1.358-3.034-3.041-3.034c-1.676 0-3.041 1.358-3.041 3.034s1.365 3.034 3.041 3.034z"></path>
</symbol>
<symbol id="icon-steam-alt" viewBox="0 0 32 32">
<path d="M27.667 10.391c0 2.414-1.871 4.356-4.15 4.356-2.299 0-4.15-1.95-4.15-4.356s1.857-4.356 4.15-4.356c2.279 0 4.15 1.942 4.15 4.356zM31.238 10.405c0 4.499-3.47 8.126-7.735 8.126l-7.435 5.698c-0.272 3.071-2.755 5.484-5.748 5.484-2.755 0-5.082-2.057-5.646-4.784l-3.912-1.65v-7.662l6.612 2.806c1.027-0.657 2.19-0.95 3.537-0.821l4.83-7.262c0.034-4.449 3.503-8.055 7.755-8.055 4.272 0 7.742 3.642 7.742 8.119zM14.571 23.637c0-2.478-1.891-4.463-4.252-4.463-0.306 0-0.612 0.036-0.918 0.107l1.769 0.75c1.735 0.728 2.585 2.785 1.884 4.606-0.694 1.821-2.667 2.714-4.401 1.964-0.694-0.286-1.395-0.593-2.088-0.871 0.714 1.407 2.122 2.371 3.755 2.371 2.361 0 4.252-1.985 4.252-4.463zM28.687 10.405c0-2.999-2.333-5.441-5.184-5.441-2.878 0-5.204 2.442-5.204 5.441 0 3.014 2.333 5.441 5.204 5.441 2.85 0.007 5.184-2.421 5.184-5.441z"></path>
</symbol>
<symbol id="icon-steam-outlined" viewBox="0 0 32 32">
<path fill="#82e1ff" style="fill: var(--color1, #82e1ff); stroke: var(--color1, #82e1ff)" stroke="#82e1ff" stroke-linejoin="miter" stroke-linecap="butt" stroke-miterlimit="4" stroke-width="1.0667" d="M23.577 4c0.736 0 1.549 0.177 2.441 0.53s1.577 0.766 2.055 1.237l0.828 0.815c0.497 0.507 0.901 1.16 1.214 1.957s0.497 1.595 0.552 2.392v1.006c-0.11 1.522-0.639 2.858-1.586 4.009s-2.101 1.953-3.462 2.405c-0.533 0.181-1.035 0.294-1.503 0.34s-0.768 0.113-0.897 0.204l-5.517 3.995c-0.092 0.073-0.184 0.136-0.276 0.19s-0.156 0.1-0.193 0.136c-0.184 1.468-0.841 2.632-1.972 3.493s-2.414 1.291-3.848 1.291c-1.030 0-1.977-0.24-2.841-0.72s-1.545-1.182-2.041-2.106c-0.11-0.199-0.198-0.376-0.262-0.53s-0.115-0.294-0.152-0.421c-0.037-0.127-0.074-0.227-0.11-0.299l-2.731-1.087c-0.331-0.127-0.515-0.317-0.552-0.571l-0.055-0.326v-5.789c0.037-0.58 0.303-0.87 0.8-0.87 0.055 0 0.175 0.018 0.359 0.054 0.331 0.127 1.094 0.426 2.29 0.897s2.115 0.843 2.759 1.114l0.441-0.19c0.699-0.29 1.508-0.435 2.428-0.435 0.184-0.254 0.331-0.462 0.441-0.625l2.455-3.452c0.441-0.562 0.8-1.078 1.076-1.549 0.074-1.16 0.299-2.111 0.676-2.854s0.97-1.522 1.779-2.338c0.607-0.562 1.398-1.019 2.372-1.373s1.986-0.53 3.035-0.53zM11.605 17.916c-0.644 0-1.416 0.19-2.317 0.571-0.129 0.054-0.257 0.082-0.386 0.082-0.11 0-0.423-0.1-0.938-0.299-0.441-0.181-1.122-0.453-2.041-0.815s-1.6-0.634-2.041-0.815v5.137l2.731 1.087c0.202 0.091 0.349 0.217 0.441 0.381s0.179 0.385 0.262 0.666c0.083 0.281 0.179 0.521 0.29 0.72 0.754 1.45 2.032 2.174 3.834 2.174 1.103 0 2.097-0.322 2.979-0.965s1.407-1.518 1.572-2.623l0.055-0.299c0.018-0.127 0.060-0.24 0.124-0.34s0.119-0.172 0.165-0.217 0.147-0.122 0.303-0.231c0.156-0.109 0.262-0.181 0.317-0.217l5.545-3.995c0.294-0.217 0.736-0.358 1.324-0.421s1.057-0.159 1.407-0.285c1.122-0.381 2.083-1.051 2.883-2.011s1.246-2.075 1.338-3.343v-0.87c-0.092-1.377-0.57-2.564-1.435-3.561l-0.8-0.788c-1.067-0.96-2.446-1.441-4.138-1.441-0.901 0-1.71 0.172-2.427 0.516-2.336 1.142-3.614 3.099-3.835 5.871-0.239 0.417-0.644 1.006-1.214 1.767l-2.428 3.425c-0.092 0.091-0.188 0.24-0.29 0.448s-0.211 0.371-0.331 0.489c-0.12 0.118-0.28 0.186-0.483 0.204h-0.469zM11.356 25.608c-0.533 0-1.067-0.181-1.6-0.544-0.588-0.417-0.929-0.779-1.021-1.087 0.055 0.018 0.4 0.154 1.034 0.408s1.154 0.381 1.559 0.381c0.607 0 1.195-0.254 1.766-0.761 0.533-0.489 0.8-1.123 0.8-1.903-0.055-0.797-0.336-1.418-0.841-1.862s-1.182-0.784-2.028-1.019c0.055-0.072 0.11-0.109 0.165-0.109h0.303c0.975 0 1.775 0.322 2.4 0.965s0.938 1.4 0.938 2.269c0 0.888-0.308 1.653-0.924 2.297s-1.467 0.965-2.552 0.965zM19.715 11.203c0-0.997 0.354-1.848 1.062-2.555s1.568-1.060 2.579-1.060c1.012 0 1.876 0.353 2.593 1.060s1.076 1.558 1.076 2.555-0.359 1.844-1.076 2.541c-0.717 0.698-1.582 1.046-2.593 1.046s-1.871-0.349-2.579-1.046c-0.708-0.698-1.062-1.545-1.062-2.541zM20.929 11.203c0 0.67 0.234 1.237 0.703 1.699s1.044 0.693 1.724 0.693c0.681 0 1.26-0.231 1.738-0.693s0.717-1.028 0.717-1.699c0-0.67-0.239-1.241-0.717-1.712s-1.057-0.707-1.738-0.707c-0.68 0-1.255 0.236-1.724 0.707s-0.703 1.042-0.703 1.712z"></path>
</symbol>
<symbol id="icon-telegram-alt" viewBox="0 0 32 32">
<path d="M2.595 12.42c-0.696-0.232-0.703-0.607 0.013-0.845l25.449-8.483c0.705-0.235 1.109 0.16 0.912 0.851l-7.272 25.448c-0.2 0.705-0.607 0.729-0.905 0.060l-4.792-10.784 8-10.667-10.667 8-10.739-3.58z"></path>
</symbol>
<symbol id="icon-close_40px-1" viewBox="0 0 32 32">
<path d="M23.734 10.304l-1.504-1.504-5.963 5.962-5.962-5.962-1.504 1.504 5.962 5.962-5.962 5.963 1.504 1.504 5.962-5.963 5.963 5.963 1.504-1.504-5.963-5.963 5.963-5.962z"></path>
</symbol>
</defs>
</svg>
